<svg xmlns="http://www.w3.org/2000/svg" id="Layer_1" data-name="Layer 1" viewBox="0 0 25.3 25.3">
<script xmlns=""/><defs><style>.cls-1{fill:#2196f3;}</style></defs><title>process</title>
<path class="cls-1" d="M24.93,13.94L23.45,13V12.29l1.48-.93a0.8,0.8,0,0,0,.36-0.81,12.69,12.69,0,0,0-.64-2.4,0.8,0.8,0,0,0-.72-0.52l-1.74-.06-0.37-.63,0.82-1.55a0.8,0.8,0,0,0-.09-0.88A13,13,0,0,0,20.8,2.75a0.8,0.8,0,0,0-.88-0.09l-1.55.82-0.63-.37L17.67,1.37A0.8,0.8,0,0,0,17.15.65,12.79,12.79,0,0,0,14.75,0a0.79,0.79,0,0,0-.81.36L13,1.85H12.29L11.36,0.38A0.8,0.8,0,0,0,10.55,0a12.79,12.79,0,0,0-2.4.64,0.8,0.8,0,0,0-.52.72L7.57,3.11l-0.63.37L5.38,2.66a0.8,0.8,0,0,0-.88.09A12.94,12.94,0,0,0,2.75,4.5a0.8,0.8,0,0,0-.09.88L3.48,6.93l-0.37.63-1.74.06a0.8,0.8,0,0,0-.72.52A12.8,12.8,0,0,0,0,10.55a0.8,0.8,0,0,0,.36.81l1.48,0.93V13l-1.48.93a0.8,0.8,0,0,0-.36.81,12.71,12.71,0,0,0,.64,2.4,0.8,0.8,0,0,0,.72.52l1.74,0.06,0.37,0.63L2.66,19.92a0.8,0.8,0,0,0,.09.88A13,13,0,0,0,4.5,22.55a0.8,0.8,0,0,0,.88.09l1.55-.82,0.63,0.37,0.06,1.74a0.8,0.8,0,0,0,.52.72,12.76,12.76,0,0,0,2.4.64,0.79,0.79,0,0,0,.81-0.36l0.93-1.48H13l0.93,1.48a0.8,0.8,0,0,0,.68.38h0.13a12.74,12.74,0,0,0,2.4-.64,0.8,0.8,0,0,0,.52-0.72l0.06-1.74,0.63-.37,1.55,0.82a0.8,0.8,0,0,0,.88-0.09,12.88,12.88,0,0,0,1.75-1.75,0.8,0.8,0,0,0,.09-0.88l-0.82-1.55,0.37-.63,1.74-.06a0.8,0.8,0,0,0,.72-0.52,12.64,12.64,0,0,0,.64-2.4A0.8,0.8,0,0,0,24.93,13.94Zm-1.6,2.15-1.64.06a0.8,0.8,0,0,0-.66.4L20.22,18a0.8,0.8,0,0,0,0,.77L21,20.19a11.11,11.11,0,0,1-.79.79l-1.46-.77a0.79,0.79,0,0,0-.77,0l-1.4.81a0.8,0.8,0,0,0-.4.66l-0.06,1.64a11,11,0,0,1-1.08.29l-0.87-1.39a0.8,0.8,0,0,0-.68-0.37H11.84a0.8,0.8,0,0,0-.68.38l-0.87,1.39a11.09,11.09,0,0,1-1.08-.29L9.15,21.69A0.8,0.8,0,0,0,8.75,21l-1.4-.81a0.8,0.8,0,0,0-.77,0L5.12,21a11.1,11.1,0,0,1-.79-0.79L5.1,18.73a0.8,0.8,0,0,0,0-.77l-0.81-1.4a0.8,0.8,0,0,0-.66-0.4L2,16.09Q1.81,15.56,1.69,15l1.39-.87a0.8,0.8,0,0,0,.37-0.68V11.84a0.8,0.8,0,0,0-.37-0.68l-1.39-.87C1.77,9.93,1.86,9.57,2,9.21l1.64-.06a0.8,0.8,0,0,0,.66-0.4l0.81-1.4a0.8,0.8,0,0,0,0-.77L4.33,5.12q0.37-.41.79-0.79L6.58,5.1a0.8,0.8,0,0,0,.77,0l1.4-.81a0.8,0.8,0,0,0,.4-0.66L9.21,2a11.2,11.2,0,0,1,1.08-.29l0.87,1.39a0.8,0.8,0,0,0,.68.37h1.62a0.8,0.8,0,0,0,.68-0.37L15,1.69A11.2,11.2,0,0,1,16.09,2l0.06,1.64a0.8,0.8,0,0,0,.4.66L18,5.09a0.81,0.81,0,0,0,.77,0l1.46-.77a11.1,11.1,0,0,1,.79.79L20.2,6.58a0.8,0.8,0,0,0,0,.77L21,8.75a0.8,0.8,0,0,0,.66.4l1.64,0.06a11.12,11.12,0,0,1,.29,1.08l-1.39.87a0.8,0.8,0,0,0-.37.68v1.62a0.8,0.8,0,0,0,.37.68L23.61,15A11.12,11.12,0,0,1,23.33,16.09Z" transform="translate(0)"/><path class="cls-1" d="M10,6.21a6.68,6.68,0,0,0-3.65,3.7,0.8,0.8,0,1,0,1.48.6,5.14,5.14,0,1,1,.41,4.6L8.52,15a0.8,0.8,0,0,0,.18-1.37L6.83,12.2a0.8,0.8,0,0,0-1.28.53l-0.3,2.33a0.8,0.8,0,0,0,1.1.84l0.4-.17A6.73,6.73,0,1,0,10,6.21Z" transform="translate(0)"/>
</svg>